<svg xmlns="http://www.w3.org/2000/svg" xmlns:xlink="http://www.w3.org/1999/xlink" viewBox="0,0,256,256" width="120px" height="120px" fill-rule="nonzero"><g fill="none" fill-rule="nonzero" stroke="none" stroke-width="1" stroke-linecap="butt" stroke-linejoin="miter" stroke-miterlimit="10" stroke-dasharray="" stroke-dashoffset="0" font-family="none" font-weight="none" font-size="none" text-anchor="none" style="mix-blend-mode: normal"><g transform="scale(2.13333,2.13333)"><path d="M107.145,55h-7.145h-12.431h-27.569v18h27.569c-1.852,5.677 -5.408,10.585 -10.063,14.118c-4.864,3.691 -10.928,5.882 -17.506,5.882c-12.574,0 -23.278,-8.002 -27.299,-19.191c-1.101,-3.064 -1.701,-6.366 -1.701,-9.809c0,-3.839 0.746,-7.505 2.101,-10.858c4.298,-10.637 14.722,-18.142 26.899,-18.142c7.365,0 14.083,2.75 19.198,7.273l13.699,-13.21c-8.592,-8.094 -20.161,-13.063 -32.897,-13.063c-18.422,0 -34.419,10.377 -42.466,25.605c-3.534,6.686 -5.534,14.307 -5.534,22.395c0,7.882 1.9,15.32 5.267,21.882c7.956,15.507 24.105,26.118 42.733,26.118c12.382,0 23.668,-4.688 32.182,-12.386c9.714,-8.783 15.818,-21.486 15.818,-35.614c0,-3.078 -0.301,-6.083 -0.855,-9z" fill="#000000" opacity="0.35"></path><path d="M17.267,81.882c7.956,15.507 24.105,26.118 42.733,26.118c12.382,0 23.668,-4.688 32.182,-12.386l-14.676,-12.496c-4.864,3.691 -10.929,5.882 -17.506,5.882c-12.574,0 -23.278,-8.002 -27.299,-19.191z" fill="#44bf00"></path><path d="M77.506,83.118c-0.684,0.553 -1.685,1.158 -2.398,1.638l14.711,12.846c0.807,-0.641 1.6,-1.298 2.363,-1.988z" fill="#000000" opacity="0.35"></path><path d="M92.182,95.614c9.714,-8.784 15.818,-21.486 15.818,-35.614c0,-3.078 -0.301,-6.083 -0.855,-9h-7.145h-12.431h-27.569v18h27.569c-1.852,5.677 -5.408,10.585 -10.063,14.118z" fill="#0075ff"></path><path d="M32.701,69.809l-15.434,12.073c0.486,0.948 1.004,1.877 1.551,2.787l15.3,-11.576c-0.488,-0.912 -1.068,-2.289 -1.417,-3.284z" fill="#000000" opacity="0.35"></path><path d="M17.267,81.882c-3.367,-6.562 -5.267,-14 -5.267,-21.882c0,-8.088 2,-15.709 5.534,-22.395l15.568,11.537c-1.356,3.354 -2.102,7.019 -2.102,10.858c0,3.443 0.6,6.745 1.701,9.809z" fill="#ffc400"></path><path d="M17.534,37.605c-0.482,0.844 -1.169,2.36 -1.564,3.251l16.059,11.491c0.299,-1.095 0.653,-2.167 1.072,-3.205z" fill="#000000" opacity="0.35"></path><path d="M33.101,49.142c4.298,-10.637 14.722,-18.142 26.899,-18.142c7.365,0 14.083,2.75 19.198,7.273l13.699,-13.21c-8.592,-8.094 -20.161,-13.063 -32.897,-13.063c-18.422,0 -34.419,10.377 -42.466,25.605z" fill="#ff1200"></path></g></g></svg>